<svg width="18" height="18" viewBox="0 0 18 18" fill="none" xmlns="http://www.w3.org/2000/svg">
<g clip-path="url(#clip0_2953_5630)">
<path d="M8.46829 0V3.44057C8.46829 3.97804 8.38309 4.49588 8.22524 4.98137C8.16355 5.17066 8.09111 5.35496 8.0082 5.53379C7.50916 6.60949 6.63745 7.47778 5.55795 7.97499C5.37936 8.05705 5.19551 8.12918 5.0062 8.19038C5.00495 8.19061 5.00369 8.19139 5.00244 8.19162C4.51689 8.34806 3.99836 8.43262 3.4606 8.43262H0C0.0657067 7.19924 0.382667 6.03225 0.900954 4.98164H2.55195L1.50589 3.94C2.15556 2.9767 2.98904 2.1467 3.95638 1.4993L5.00271 2.5412V0.896884C6.05775 0.380788 7.22967 0.0654192 8.46829 0Z" fill="#FFE600"/>
<path d="M8.46829 14.3743V17.8208C7.2294 17.7554 6.05724 17.44 5.0022 16.9237V15.2799L3.95591 16.3217C2.98876 15.6743 2.15505 14.8441 1.50538 13.8811L2.55144 12.8394H0.900922C0.382395 11.7886 0.0657067 10.6216 0 9.38818H3.45509C3.99511 9.38818 4.51513 9.473 5.00244 9.63018C5.19253 9.69163 5.37811 9.76374 5.55744 9.84632C6.63745 10.3433 7.50967 11.2113 8.00894 12.2863C8.09136 12.4639 8.16354 12.6472 8.225 12.8357C8.22549 12.8369 8.226 12.8382 8.22627 12.8394C8.3836 13.3229 8.46853 13.8388 8.46853 14.3745L8.46829 14.3743Z" fill="#FFE600"/>
<path d="M16.9953 12.8396H15.3446L16.3906 13.8813C15.741 14.8446 14.9075 15.6746 13.9401 16.3217L12.8938 15.2801V16.9239C11.8388 17.44 10.6668 17.7559 9.42773 17.8208V14.3802C9.42773 13.8425 9.51292 13.3247 9.67101 12.8394C9.73219 12.6501 9.80513 12.4656 9.88781 12.2868C10.3869 11.2113 11.2586 10.3428 12.3381 9.84558C12.5166 9.7635 12.7007 9.69159 12.8898 9.63068C12.8913 9.63018 12.8926 9.62967 12.8938 9.62944C13.3796 9.47271 13.8974 9.38818 14.4354 9.38818H17.8965C17.8308 10.6218 17.5141 11.7891 16.9956 12.8396H16.9953Z" fill="#FFE600"/>
<path d="M17.8962 8.43262H14.4409C13.9011 8.43262 13.3811 8.34782 12.8936 8.19061C12.7035 8.12918 12.5184 8.05682 12.3388 7.97449C11.2586 7.47754 10.3866 6.60949 9.8873 5.53453C9.8049 5.35671 9.73246 5.1734 9.67101 4.9851C9.67077 4.98386 9.67003 4.98238 9.66975 4.98114C9.51264 4.49762 9.42773 3.98176 9.42773 3.44601V0C10.6664 0.0654192 11.8383 0.380788 12.8933 0.896884V2.5407L13.9396 1.49906C14.907 2.14623 15.7404 2.97619 16.3901 3.9395L15.3441 4.98114H16.9948C17.5134 6.03175 17.8303 7.19874 17.8957 8.43262H17.8962Z" fill="#FFE600"/>
</g>
<defs>
<clipPath id="clip0_2953_5630">
<rect width="18" height="18" fill="white"/>
</clipPath>
</defs>
</svg>
