<svg viewBox="0 0 141 30" fill="none" xmlns="http://www.w3.org/2000/svg"><g clip-path="url(#clip0_458_11039)"><path d="M43.5611 4.47559C41.9189 4.47559 40.3362 4.68193 39.6917 4.85636C38.7536 5.12013 38.5196 5.53068 38.343 6.38156L34.6204 23.5588C34.5609 23.9097 34.5034 24.2033 34.5034 24.4969C34.5034 25.3477 35.0607 25.9029 35.9691 25.9029C36.9667 25.9029 37.3773 25.2584 37.5815 24.2607L38.6366 19.366C39.3683 19.4532 40.3362 19.5426 41.7146 19.5426C47.7836 19.5426 51.5636 16.2603 51.5636 11.306C51.5636 6.96655 48.543 4.47559 43.5611 4.47559ZM41.5679 16.7283C40.6298 16.7283 39.8959 16.6985 39.2237 16.6113L41.1871 7.49409C41.8019 7.40688 42.7123 7.28775 43.6504 7.28775C46.8753 7.28775 48.5175 8.81296 48.5175 11.3337C48.5153 14.5585 46.169 16.7283 41.5679 16.7283Z" fill="black"/><path d="M139.062 20.2446C138.564 20.2446 138.241 20.5381 137.626 21.2124C136.541 22.3271 135.867 22.9419 135.018 22.9419C134.257 22.9419 133.846 22.3271 133.846 21.3294C133.846 20.7721 133.963 20.0978 134.11 19.366L135.195 14.265H138.449C139.475 14.265 140.092 13.6779 140.092 12.6228C140.092 12.0357 139.711 11.5975 138.832 11.5975H135.78L136.307 9.2235C136.367 8.87251 136.424 8.54918 136.424 8.25562C136.424 7.43452 135.867 6.84741 134.959 6.84741C133.991 6.84741 133.552 7.49196 133.346 8.48962L132.672 11.5975H131.293C130.238 11.5975 129.624 12.1846 129.624 13.2397C129.624 13.8268 130.034 14.265 130.913 14.265H132.114L131.03 19.3065C130.913 19.8638 130.766 20.7721 130.766 21.7102C130.766 24.0842 131.998 25.8136 134.635 25.8136C136.16 25.8136 137.507 25.0521 138.534 24.1416C139.532 23.2631 140.264 22.1782 140.264 21.4741C140.264 20.8019 139.736 20.2446 139.062 20.2446Z" fill="black"/><path d="M71.6423 6.20509C71.6423 5.3542 71.0552 4.79688 70.1469 4.79688C69.179 4.79688 68.7408 5.44142 68.5344 6.43908L64.8714 23.4695C64.7842 23.8205 64.7246 24.114 64.7246 24.4076C64.7246 25.2585 65.3117 25.8137 66.1903 25.8137C67.1879 25.8137 67.6261 25.1691 67.8325 24.1715L71.4955 7.14318C71.5551 6.79007 71.6423 6.49864 71.6423 6.20509Z" fill="black"/><path d="M123.965 11.3039C119.275 11.3039 116.08 15.9646 116.08 20.3913C116.08 20.4742 116.082 20.5572 116.084 20.638C115.348 21.7548 114.408 22.912 113.763 22.912C113.295 22.912 113.119 22.4717 113.119 21.7974C113.119 20.9763 113.353 19.5978 113.616 18.396L116.05 7.13879C116.109 6.7878 116.167 6.49425 116.167 6.20069C116.167 5.34981 115.61 4.79248 114.701 4.79248C113.704 4.79248 113.295 5.43702 113.089 6.43468L111.77 12.5313C111.066 11.7995 110.038 11.2996 108.486 11.2996C105.371 11.2996 102.238 13.697 101.017 17.3749C99.6725 20.8508 98.4706 22.9078 97.5219 22.9078C97.1709 22.9078 96.9646 22.6142 96.9646 22.1165C96.9646 20.6508 97.7857 17.075 98.1367 15.3456C98.2537 14.701 98.3132 14.4372 98.3132 14.0565C98.3132 12.7674 96.1733 11.2422 93.3887 11.2422C90.1682 11.2422 87.2517 13.2822 85.7904 16.3113C83.6185 20.1488 81.6253 22.9078 80.6383 22.9078C80.1979 22.9078 80.0512 22.3504 79.9342 21.8229L79.2045 17.7833L83.6887 14.1203C84.0992 13.7693 84.6268 13.2694 84.6268 12.6249C84.6268 11.8335 84.0992 11.306 83.3079 11.306C82.7208 11.306 82.223 11.657 81.7253 12.0675L74.9841 17.6366L77.2411 7.14304C77.3007 6.79205 77.3879 6.4985 77.3879 6.20495C77.3879 5.35406 76.8008 4.79673 75.8925 4.79673C74.9246 4.79673 74.4864 5.44128 74.28 6.43894L70.617 23.4694C70.5298 23.8203 70.4702 24.1139 70.4702 24.4075C70.4702 25.2583 71.0573 25.8135 71.9359 25.8135C72.9335 25.8135 73.3717 25.169 73.5781 24.1713L74.0482 21.9739L76.8029 19.7467L77.4772 23.146C77.741 24.4947 78.4451 25.8135 80.2617 25.8135C82.0699 25.8135 83.493 24.1628 84.9182 21.9314C85.35 24.2692 87.0135 25.8135 89.3215 25.8135C91.638 25.8135 93.2207 24.4351 94.246 22.5887V22.6483C94.246 24.5542 95.2139 25.8135 96.9135 25.8135C98.4515 25.8135 99.7278 24.8861 100.868 22.9163C101.515 24.6329 102.961 25.8135 104.974 25.8135C107.347 25.8135 109.047 24.3777 110.132 22.3845V22.561C110.132 24.6712 111.187 25.8157 112.917 25.8157C114.444 25.8157 115.741 24.9286 116.85 23.4864C117.692 24.9286 119.202 25.8157 121.242 25.8157C125.933 25.8157 129.128 21.155 129.128 16.6985C129.126 13.5608 127.22 11.3039 123.965 11.3039ZM94.7416 17.2558C93.8908 20.9188 92.0741 23.0014 90.0214 23.0014C88.6429 23.0014 87.8814 21.9463 87.8814 20.3636C87.8814 17.2558 90.1384 13.9139 93.1569 13.9139C94.0652 13.9139 94.7693 14.1777 95.3841 14.5585L94.7416 17.2558ZM111.068 15.7029C110.13 20.0126 107.99 23.0014 105.646 23.0014C104.357 23.0014 103.593 22.0037 103.593 20.3636C103.593 17.2281 105.763 13.9735 108.664 13.9735C109.779 13.9735 110.628 14.3543 111.245 14.852L111.068 15.7029ZM121.591 23.0014C119.892 23.0014 119.188 21.7697 119.188 20.2169C119.188 17.3728 121.151 14.1203 123.614 14.1203C125.314 14.1203 126.018 15.3519 126.018 16.9048C126.018 19.7765 124.055 23.0014 121.591 23.0014Z" fill="black"/><path d="M58.8619 11.304C54.1714 11.304 50.9763 15.9647 50.9763 20.3914C50.9763 23.5567 52.8823 25.8136 56.1348 25.8136C60.8253 25.8136 64.0204 21.1529 64.0204 16.6964C64.0204 13.5609 62.1144 11.304 58.8619 11.304ZM56.4879 23.0015C54.7883 23.0015 54.0842 21.7698 54.0842 20.217C54.0842 17.3729 56.0476 14.1204 58.5109 14.1204C60.2105 14.1204 60.9146 15.352 60.9146 16.9049C60.9125 19.7766 58.9491 23.0015 56.4879 23.0015Z" fill="black"/><path d="M14.1033 6.29228C17.0909 6.29228 19.5128 4.8837 19.5128 3.14614C19.5128 1.40857 17.0909 0 14.1033 0C11.1158 0 8.69385 1.40857 8.69385 3.14614C8.69385 4.8837 11.1158 6.29228 14.1033 6.29228Z" fill="#E6007A"/><path d="M14.1033 29.9978C17.0909 29.9978 19.5128 28.5893 19.5128 26.8517C19.5128 25.1141 17.0909 23.7056 14.1033 23.7056C11.1158 23.7056 8.69385 25.1141 8.69385 26.8517C8.69385 28.5893 11.1158 29.9978 14.1033 29.9978Z" fill="#E6007A"/><path d="M6.56501 10.6472C8.0588 8.06 8.0491 5.25787 6.54336 4.3885C5.03761 3.51913 2.606 4.91174 1.11221 7.49898C-0.381574 10.0862 -0.371879 12.8884 1.13387 13.7577C2.63962 14.6271 5.07122 13.2345 6.56501 10.6472Z" fill="#E6007A"/><path d="M27.0923 22.4986C28.5861 19.9114 28.5773 17.1097 27.0725 16.2409C25.5678 15.3722 23.137 16.7653 21.6432 19.3525C20.1494 21.9397 20.1583 24.7414 21.663 25.6102C23.1678 26.479 25.5985 25.0859 27.0923 22.4986Z" fill="#E6007A"/><path d="M6.54409 25.6096C8.04984 24.7402 8.05953 21.938 6.56574 19.3508C5.07195 16.7636 2.64035 15.371 1.1346 16.2403C-0.371147 17.1097 -0.380842 19.9118 1.11295 22.4991C2.60674 25.0863 5.03834 26.4789 6.54409 25.6096Z" fill="#E6007A"/><path d="M27.0737 13.7586C28.5785 12.8898 28.5873 10.0881 27.0936 7.50088C25.5998 4.91364 23.169 3.52055 21.6643 4.38933C20.1595 5.25812 20.1507 8.05978 21.6444 10.647C23.1382 13.2343 25.569 14.6273 27.0737 13.7586Z" fill="#E6007A"/></g><defs><clipPath id="clip0_458_11039"><rect width="140.264" height="30" fill="white"/></clipPath></defs></svg>