<svg viewBox="0 0 115 26" fill="currentColor" xmlns="http://www.w3.org/2000/svg"><path d="M11.8508 7.48395C12.5575 8.36476 13.4679 9.06049 14.5033 9.51121C15.5388 9.96185 16.6683 10.154 17.7946 10.071C17.8399 10.066 17.8858 10.074 17.9268 10.0941C17.9677 10.1143 18.0021 10.1456 18.0259 10.1846C18.0497 10.2236 18.0618 10.2685 18.0609 10.3141C18.0601 10.3598 18.0461 10.4042 18.0209 10.4422C17.4019 11.3869 17.0218 12.4679 16.9134 13.592C16.805 14.7162 16.9714 15.8499 17.3984 16.8954C17.4152 16.9367 17.42 16.982 17.4124 17.026C17.4048 17.07 17.3851 17.111 17.3555 17.1444C17.3258 17.1778 17.2874 17.2023 17.2446 17.2151C17.2018 17.2279 17.1564 17.2285 17.1133 17.2168C16.0224 16.9187 14.8751 16.8907 13.771 17.1352C12.6668 17.3797 11.6388 17.8893 10.7757 18.6201C10.7412 18.6486 10.6995 18.667 10.6552 18.6732C10.6109 18.6795 10.5658 18.6735 10.5248 18.6556C10.4838 18.6378 10.4486 18.609 10.4229 18.5724C10.3973 18.5357 10.3823 18.4927 10.3796 18.4481C10.325 17.3205 9.99708 16.223 9.42417 15.2503C8.85125 14.2775 8.05045 13.4587 7.09074 12.8641C7.05292 12.8403 7.02247 12.8063 7.00276 12.7662C6.98305 12.726 6.97489 12.6811 6.97911 12.6366C6.98332 12.5921 6.99973 12.5495 7.02663 12.5138C7.05353 12.4781 7.08989 12.4505 7.13152 12.4341C8.1884 12.0344 9.1322 11.3836 9.88146 10.5377C10.6307 9.69191 11.1629 8.67645 11.4321 7.57901C11.4426 7.53569 11.465 7.49618 11.4968 7.4649C11.5286 7.43362 11.5685 7.41182 11.612 7.40195C11.6555 7.39208 11.7008 7.39452 11.7431 7.40901C11.7853 7.42349 11.8226 7.44944 11.8508 7.48395Z" fill="currentColor"/><path d="M12.8337 2.88239C14.8348 2.88239 16.7909 3.47578 18.4547 4.58752C20.1186 5.69925 21.4154 7.2794 22.1811 9.12815C22.9469 10.9769 23.1473 13.0112 22.7569 14.9738C22.3665 16.9364 21.4028 18.7392 19.9879 20.1542C18.5729 21.5691 16.7702 22.5328 14.8075 22.9231C12.8449 23.3136 10.8106 23.1132 8.96182 22.3474C7.1131 21.5816 5.533 20.2848 4.42126 18.621C3.30952 16.9572 2.71605 15.0011 2.71605 13C2.71905 10.3176 3.78597 7.74587 5.68274 5.84907C7.5795 3.95231 10.1512 2.88539 12.8337 2.88239ZM12.8337 0.16626C10.2954 0.16626 7.81415 0.918947 5.70362 2.32913C3.59312 3.73933 1.94827 5.74367 0.976919 8.08876C0.00556186 10.4338 -0.248591 13.0142 0.246602 15.5037C0.741794 17.9932 1.96409 20.2799 3.75892 22.0748C5.55375 23.8696 7.84045 25.0919 10.33 25.5871C12.8195 26.0823 15.3999 25.8282 17.7449 24.8568C20.09 23.8854 22.0944 22.2405 23.5046 20.13C24.9147 18.0195 25.6674 15.5382 25.6674 13C25.6674 9.5963 24.3153 6.33196 21.9084 3.92517C19.5017 1.51838 16.2374 0.16626 12.8337 0.16626Z" fill="currentColor"/><path d="M35 15.5897H37.736C37.736 16.6535 38.7203 17.5585 40.3219 17.5585C41.9401 17.5585 42.9411 16.844 42.9411 15.8437C42.9411 14.9546 42.1904 14.4942 41.1393 14.2719L39.2375 13.8432C36.6183 13.1923 35.4171 11.9062 35.4171 9.92162C35.4171 7.74647 37.4858 6 40.4053 6C42.8077 6 45.3935 7.20665 45.3935 10.001H42.5741C42.5741 9.03251 41.5231 8.36568 40.472 8.36568C39.2375 8.36568 38.4033 9.08014 38.4033 10.001C38.4033 10.8266 39.2208 11.287 40.0883 11.4934L42.2238 11.9856C45.2434 12.7001 45.894 14.4783 45.894 15.9073C45.894 18.4476 43.2414 19.94 40.3552 19.94C37.736 19.94 35.05 18.3682 35 15.5897ZM47.212 12.9224C47.212 8.68321 50.5819 6 54.5859 6C58.5898 6 61.9764 8.68321 61.9764 12.9224C61.9764 17.1615 58.5731 19.94 54.5692 19.94C50.5653 19.94 47.212 17.1615 47.212 12.9224ZM59.0235 12.9224C59.0235 10.3503 56.9715 8.6197 54.5692 8.6197C52.1668 8.6197 50.1482 10.3344 50.1482 12.9224C50.1482 15.5262 52.1668 17.2727 54.5692 17.2727C56.9715 17.2727 59.0235 15.5262 59.0235 12.9224ZM73.1207 6.49219L72.6035 9.15952C71.9529 8.87374 71.2522 8.71497 70.5348 8.69909C67.9823 8.69909 66.7811 11.2394 66.7811 14.8594V19.6701H63.7949V6.30167H66.7811V9.30242C67.4985 6.95262 68.9166 6.01588 70.7183 6.01588C71.6693 6 72.6702 6.22228 73.1207 6.49219ZM88.3189 6.28579V19.6542H85.366V17.6537C84.4318 19.1779 82.4131 19.94 80.528 19.94C76.7075 19.94 73.5545 17.1933 73.5545 12.9541C73.5545 8.68321 76.7075 6 80.4946 6C82.4799 6 84.4318 6.74622 85.366 8.25453V6.26991H88.3189V6.28579ZM85.3493 12.9224C85.3493 10.2392 83.0304 8.65146 80.8616 8.65146C78.4593 8.65146 76.5073 10.3979 76.5073 12.9224C76.5073 15.4151 78.4593 17.2727 80.8616 17.2727C83.2473 17.2727 85.3493 15.6215 85.3493 12.9224ZM99.947 6.49219L99.4298 9.15952C98.7792 8.87374 98.0785 8.71497 97.3611 8.69909C94.8086 8.69909 93.6074 11.2394 93.6074 14.8594V19.6701H90.6379V6.30167H93.6241V9.30242C94.3415 6.95262 95.7595 6.01588 97.5613 6.01588C98.4956 6 99.4965 6.22228 99.947 6.49219ZM114.545 14.0973H103.35C103.734 16.2724 105.419 17.3362 107.705 17.3362C109.323 17.3362 110.858 16.6852 111.642 15.4468L113.994 16.5582C112.76 18.7969 110.24 19.94 107.554 19.94C103.5 19.94 100.314 17.1615 100.314 12.9224C100.314 8.68321 103.567 6 107.554 6C111.542 6 114.595 8.68322 114.595 12.8906C114.595 13.2717 114.561 13.6686 114.545 14.0973ZM111.659 11.8427C111.392 9.74697 109.757 8.60383 107.604 8.60383C105.452 8.60383 103.817 9.63583 103.4 11.8427H111.659Z" fill="currentColor"/></svg>