<svg viewBox="0 0 110 28" fill="currentColor" xmlns="http://www.w3.org/2000/svg"><path d="M45.5209 4.46112C43.4962 4.46112 42.0239 4.93814 40.7731 6.03854L38.5642 7.94586C38.3801 8.09299 38.0119 8.20295 37.7547 7.98226C37.4967 7.76233 37.4602 7.46884 37.6809 7.17535L38.8587 5.4144C39.0428 5.15731 38.896 4.82741 38.5642 4.82741H35.73C35.399 4.82741 35.1411 5.0845 35.1411 5.4144V22.5841C35.1411 22.914 35.399 23.1711 35.73 23.1711H38.6746C39.0056 23.1711 39.2635 22.914 39.2635 22.5841V12.8988C39.2635 8.46004 42.9811 7.76309 44.3796 7.76309C47.3607 7.76309 48.4282 9.8911 48.4282 11.5049V22.5841C48.4282 22.914 48.6861 23.1711 49.0171 23.1711H51.9616C52.2926 23.1711 52.5506 22.914 52.5506 22.5841V11.1379C52.5506 7.02898 49.864 4.46112 45.5209 4.46112Z" fill="currentColor"/><path d="M64.549 4.38757C58.844 4.38757 55.2002 7.87307 55.2002 12.6053V15.2104C55.2002 20.1997 58.844 23.6117 64.549 23.6117C69.5913 23.6117 73.1247 21.0067 73.493 17.4848C73.5303 17.1177 73.2724 16.8614 72.9041 16.8614H70.0333C69.7754 16.8614 69.5547 17.0085 69.4809 17.2648C69.1127 18.4388 67.3832 20.1997 64.549 20.1997C61.7147 20.1997 59.0646 18.1453 59.1012 15.2104L59.1384 11.9456C59.175 9.48766 61.752 7.80027 64.549 7.80027C67.0888 7.80027 69.5547 9.23133 69.8119 11.5793C69.8332 11.8508 69.646 12.0957 69.3775 12.1473L61.1251 13.7437C60.7941 13.8172 60.5362 14.1107 60.5362 14.477V14.5134C60.5362 14.8433 60.8671 15.1368 61.3457 15.1368H73.1978C73.5234 15.1368 73.7867 14.8737 73.7867 14.5498V12.2391C73.7867 7.87383 69.9953 4.38833 64.5482 4.38833L64.549 4.38757Z" fill="currentColor"/><path d="M85.0863 4.38754C80.4853 4.38754 76.5105 7.06537 76.5105 10.5873C76.5105 10.8808 76.7685 11.1007 77.0994 11.1007H80.0805C80.375 11.1007 80.5956 10.8808 80.6329 10.5873C80.9274 8.97345 82.8782 7.79948 84.976 7.79948C87.4785 7.79948 89.1722 9.3405 89.1722 11.982V15.174C89.1722 18.4388 86.7427 20.0898 83.7243 20.0898C81.3687 20.0898 80.0067 19.2093 80.0067 17.7782C80.0067 16.5307 80.6694 15.4667 83.3926 14.8433L87.3309 13.7793C87.7356 13.6693 87.8832 13.3387 87.8094 12.9724C87.7729 12.6789 87.4419 12.5318 87.1467 12.5318H83.0616C79.6019 12.5318 76.105 14.7326 76.105 17.961V18.4744C76.105 21.7764 79.2337 23.5002 82.8037 23.5002C85.0855 23.5002 87.0364 22.6197 88.2507 21.5929L90.0548 20.0519C90.3492 19.7948 90.6437 19.7948 90.9008 20.0519C91.1215 20.2718 91.0477 20.6024 90.8636 20.8588L89.7595 22.5833C89.5754 22.8404 89.7223 23.1703 90.054 23.1703H92.7041C93.0351 23.1703 93.293 22.9132 93.293 22.5833V11.467C93.293 7.21174 90.2381 4.38678 85.0848 4.38678L85.0863 4.38754Z" fill="currentColor"/><path d="M109.194 4.82819H105.071C103.636 4.82819 102.237 5.70866 101.243 6.55274L99.6243 7.94663C99.4401 8.09376 99.1084 8.20372 98.8877 8.0202C98.6298 7.83667 98.5195 7.46962 98.7409 7.17612L99.9187 5.41517C100.103 5.15808 99.956 4.82819 99.6243 4.82819H96.8638C96.5328 4.82819 96.2749 5.08528 96.2749 5.41517V22.5848C96.2749 22.9147 96.5328 23.1718 96.8638 23.1718H99.8822C100.213 23.1718 100.471 22.9147 100.471 22.5848V13.7801C100.471 10.0011 102.017 8.31369 105.367 8.31369H109.194C109.525 8.31369 109.783 8.0566 109.783 7.7267V5.41517C109.783 5.08528 109.525 4.82819 109.194 4.82819Z" fill="currentColor"/><path d="M24.0789 0.690491C23.0898 0.690491 22.1714 1.20164 21.6533 2.04192L16.0708 10.3029C15.8889 10.5752 15.9627 10.9422 16.2359 11.1235C16.4573 11.2706 16.7502 11.2524 16.9519 11.0795L22.4469 6.32903C22.5382 6.24713 22.6789 6.25547 22.7611 6.34647C22.7984 6.38818 22.8182 6.44203 22.8182 6.49739V21.3707C22.8182 21.4935 22.7185 21.5921 22.5952 21.5921C22.529 21.5921 22.4667 21.5633 22.4248 21.5125L5.81424 1.69459C5.27327 1.05831 4.47892 0.69125 3.64272 0.690491H3.06218C1.49098 0.690491 0.217285 1.96002 0.217285 3.52607V24.4739C0.217285 26.04 1.49098 27.3095 3.06218 27.3095C4.05131 27.3095 4.96968 26.7984 5.48783 25.9581L11.0704 17.6971C11.2522 17.4248 11.1784 17.0578 10.9052 16.8765C10.6838 16.7294 10.3909 16.7476 10.1893 16.9205L4.69424 21.671C4.60294 21.7529 4.46218 21.7445 4.38001 21.6535C4.34272 21.6118 4.32294 21.558 4.3237 21.5026V6.62556C4.3237 6.5027 4.42337 6.40411 4.54663 6.40411C4.61207 6.40411 4.67522 6.43293 4.71707 6.48374L21.3254 26.3054C21.8663 26.9417 22.6607 27.3088 23.4969 27.3095H24.0774C25.6486 27.3103 26.9231 26.0415 26.9246 24.4755V3.52607C26.9246 1.96002 25.6501 0.690491 24.0789 0.690491Z" fill="currentColor"/></svg>