<svg viewBox="0 0 200 27" fill="currentColor" xmlns="http://www.w3.org/2000/svg"><g clip-path="url(#clip0_1136_1826)"><path d="M45.519 26.0524V1.38477H56.3058C57.5024 1.38477 58.5737 1.52722 59.5196 1.81213C60.4654 2.09711 61.266 2.50453 61.9214 3.03438C62.5669 3.55191 63.0821 4.2135 63.4257 4.96608C63.7732 5.72413 63.947 6.58172 63.9471 7.53885C63.9489 8.17848 63.833 8.81299 63.6052 9.41069C63.3862 9.99366 63.0681 10.5344 62.665 11.0091C62.2622 11.4797 61.7824 11.8785 61.2461 12.1886C60.7046 12.5058 60.1066 12.7148 59.4854 12.804V13.1117C60.2695 13.1595 61.0378 13.3538 61.7504 13.6844C62.418 13.9937 63.0234 14.4224 63.5368 14.9494C64.0407 15.472 64.4384 16.0874 64.7078 16.7614C64.9908 17.4709 65.133 18.2285 65.1266 18.9922C65.1266 20.0751 64.9301 21.0524 64.5369 21.924C64.1505 22.787 63.5681 23.5479 62.836 24.1463C62.095 24.7561 61.1975 25.2262 60.1435 25.5566C59.0893 25.8873 57.9069 26.0526 56.5964 26.0524H45.519ZM50.6816 11.6074H54.5621C55.9639 11.6074 57.0323 11.3367 57.7674 10.7954C58.5025 10.2542 58.87 9.48212 58.87 8.47906C58.87 7.48757 58.5338 6.71545 57.8614 6.16271C57.1888 5.61009 56.2315 5.33372 54.9895 5.33362H50.6816V11.6074ZM55.2801 22.1035C56.773 22.1035 57.9098 21.8015 58.6905 21.1975C59.471 20.5935 59.8613 19.7103 59.8615 18.5478C59.8615 17.4083 59.4598 16.5479 58.6563 15.9665C57.8528 15.3853 56.6876 15.0947 55.1604 15.0947H50.6816V22.1035H55.2801Z" fill="currentColor"/><path d="M67.7178 0H72.6924V26.0523H67.7178V0Z" fill="currentColor"/><path d="M81.2674 26.3429C80.3555 26.3429 79.5235 26.209 78.7716 25.9412C78.0522 25.6929 77.3897 25.3035 76.8228 24.7958C76.2747 24.2989 75.8403 23.6896 75.5492 23.0095C75.2471 22.3144 75.0961 21.5338 75.0962 20.6675C75.0962 18.9468 75.723 17.6049 76.9766 16.6417C78.2301 15.6788 80.0365 15.1289 82.3956 14.9921L86.9599 14.7186V13.18C86.9599 12.3937 86.6892 11.7868 86.1479 11.3595C85.6065 10.9321 84.8173 10.7184 83.7803 10.7184C82.8799 10.7184 82.1391 10.8665 81.558 11.1629C80.9768 11.4594 80.5836 11.8924 80.3785 12.4621H75.7971C75.8656 11.6303 76.126 10.8257 76.5578 10.1115C76.9969 9.39833 77.5825 8.78652 78.2758 8.31659C78.9938 7.82085 79.84 7.44193 80.8144 7.17981C81.7888 6.91778 82.8686 6.78672 84.0538 6.78662C85.2959 6.78662 86.4042 6.93192 87.3787 7.22253C88.3531 7.51315 89.1708 7.93198 89.8318 8.47901C90.4878 9.01959 91.0062 9.70794 91.3447 10.4876C91.6922 11.2798 91.866 12.1773 91.8661 13.18V26.0523H87.0454V23.5907H86.7377C86.2475 24.4569 85.521 25.1321 84.5581 25.6164C83.5949 26.1006 82.498 26.3428 81.2674 26.3429ZM82.9085 22.5992C83.4547 22.6048 83.998 22.5181 84.5154 22.3427C84.9832 22.1842 85.4178 21.9409 85.7975 21.6248C86.1533 21.3283 86.4442 20.9617 86.6522 20.5478C86.8582 20.1338 86.9637 19.6769 86.9599 19.2145V17.8298L83.1478 18.0691C81.0281 18.2174 79.9682 18.9752 79.9682 20.3427C79.9682 21.0494 80.2417 21.6022 80.7887 22.0009C81.3358 22.3999 82.0423 22.5994 82.9085 22.5992Z" fill="currentColor"/><path d="M107.039 13.8467C106.868 12.9466 106.469 12.2258 105.843 11.6842C105.216 11.1431 104.367 10.8724 103.296 10.8722C101.951 10.8722 100.916 11.3566 100.193 12.3253C99.469 13.2941 99.1072 14.7129 99.1074 16.5818C99.1074 18.4738 99.4692 19.9126 100.193 20.8983C100.916 21.8841 101.951 22.377 103.296 22.377C104.321 22.377 105.153 22.1348 105.791 21.6504C106.429 21.1662 106.845 20.4567 107.039 19.5221H111.689C111.586 20.582 111.321 21.5394 110.894 22.3941C110.478 23.234 109.893 23.979 109.176 24.5822C108.458 25.1864 107.606 25.6508 106.62 25.9754C105.635 26.3002 104.526 26.4626 103.296 26.4626C101.825 26.4626 100.518 26.2432 99.3723 25.8044C98.227 25.3659 97.264 24.7277 96.4833 23.8898C95.7026 23.0522 95.1071 22.0208 94.697 20.7957C94.2867 19.5708 94.0815 18.1662 94.0815 16.5819C94.0815 15.0207 94.2838 13.6303 94.6884 12.4108C95.0928 11.1915 95.6883 10.1658 96.4748 9.33373C97.2612 8.50196 98.227 7.86946 99.3723 7.43623C100.518 7.00324 101.825 6.7867 103.296 6.78662C104.538 6.78662 105.657 6.95187 106.655 7.28238C107.652 7.61304 108.504 8.08599 109.21 8.70123C109.921 9.32168 110.497 10.0809 110.903 10.9321C111.324 11.8039 111.586 12.7754 111.689 13.8467H107.039Z" fill="currentColor"/><path d="M125.58 7.19686H131.239L124.059 15.2826L131.734 26.0523H125.837L120.332 18.3939L118.965 19.7956V26.0523H113.99V0H118.965V14.5647H119.272L125.58 7.19686Z" fill="currentColor"/><path d="M143.916 1.38477C145.181 1.38477 146.338 1.5899 147.386 2.00018C148.395 2.38509 149.314 2.9727 150.087 3.72674C150.854 4.49078 151.451 5.40827 151.839 6.41913C152.255 7.47338 152.463 8.63867 152.463 9.91499C152.463 11.18 152.25 12.3339 151.822 13.3767C151.415 14.3895 150.797 15.3043 150.01 16.0605C149.209 16.82 148.261 17.4076 147.224 17.7871C146.147 18.1918 144.959 18.3941 143.66 18.394H138.788V26.0524H133.625V1.38477H143.916ZM138.788 14.2058H142.531C144.024 14.2058 145.178 13.8411 145.993 13.1117C146.808 12.3825 147.215 11.3226 147.215 9.93208C147.215 8.5191 146.811 7.44784 146.002 6.7183C145.192 5.9891 144.041 5.62441 142.548 5.62424H138.788V14.2058Z" fill="currentColor"/><path d="M163.329 26.4626C161.881 26.4626 160.582 26.2404 159.431 25.7959C158.322 25.3795 157.322 24.716 156.508 23.8556C155.71 23.0068 155.1 21.9725 154.679 20.753C154.257 19.5336 154.046 18.1547 154.046 16.6161C154.046 15.0891 154.26 13.7186 154.687 12.5048C155.115 11.2911 155.73 10.2597 156.533 9.41065C157.351 8.55222 158.35 7.88653 159.457 7.46186C160.602 7.01181 161.893 6.78673 163.329 6.78662C164.765 6.78662 166.055 7.0117 167.2 7.46186C168.307 7.88652 169.306 8.5522 170.124 9.41065C170.927 10.2598 171.543 11.2912 171.97 12.5048C172.397 13.7185 172.611 15.089 172.611 16.6161C172.611 18.1546 172.4 19.5335 171.978 20.753C171.557 21.9726 170.947 23.0068 170.149 23.8556C169.335 24.7159 168.335 25.3794 167.226 25.7959C166.075 26.2404 164.776 26.4626 163.329 26.4626ZM163.329 22.3941C164.662 22.3941 165.69 21.8898 166.414 20.8812C167.138 19.8726 167.5 18.4509 167.5 16.6161C167.5 15.7159 167.406 14.9067 167.218 14.1886C167.03 13.4706 166.756 12.8666 166.397 12.3766C166.056 11.9025 165.608 11.5159 165.089 11.2483C164.576 10.9863 163.99 10.8553 163.329 10.8552C162.667 10.8552 162.078 10.9862 161.559 11.2483C161.038 11.5127 160.589 11.8999 160.251 12.3766C159.898 12.8667 159.627 13.4707 159.44 14.1886C159.251 14.9066 159.157 15.7157 159.157 16.6161C159.157 18.4623 159.516 19.8868 160.234 20.8898C160.952 21.8927 161.984 22.3942 163.329 22.3941Z" fill="currentColor"/><path d="M183.271 26.4626C181.824 26.4626 180.525 26.2404 179.374 25.7959C178.265 25.3795 177.265 24.716 176.45 23.8556C175.653 23.0068 175.043 21.9725 174.621 20.753C174.2 19.5336 173.989 18.1547 173.989 16.6161C173.989 15.0891 174.202 13.7186 174.63 12.5048C175.057 11.2911 175.673 10.2597 176.476 9.41065C177.294 8.55222 178.292 7.88653 179.399 7.46186C180.545 7.01181 181.835 6.78673 183.271 6.78662C184.707 6.78662 185.998 7.0117 187.143 7.46186C188.25 7.88652 189.249 8.5522 190.066 9.41065C190.87 10.2598 191.485 11.2912 191.913 12.5048C192.34 13.7185 192.554 15.089 192.554 16.6161C192.554 18.1546 192.343 19.5335 191.921 20.753C191.499 21.9726 190.89 23.0068 190.092 23.8556C189.277 24.7159 188.278 25.3794 187.169 25.7959C186.018 26.2404 184.718 26.4626 183.271 26.4626ZM183.271 22.3941C184.605 22.3941 185.633 21.8898 186.357 20.8812C187.08 19.8726 187.442 18.4509 187.442 16.6161C187.442 15.7159 187.348 14.9067 187.16 14.1886C186.972 13.4706 186.699 12.8666 186.34 12.3766C185.999 11.9025 185.551 11.5159 185.032 11.2483C184.519 10.9863 183.932 10.8553 183.271 10.8552C182.61 10.8552 182.02 10.9862 181.502 11.2483C180.981 11.5127 180.532 11.8999 180.194 12.3766C179.841 12.8667 179.57 13.4707 179.382 14.1886C179.194 14.9066 179.1 15.7157 179.1 16.6161C179.1 18.4623 179.459 19.8868 180.177 20.8898C180.895 21.8927 181.926 22.3942 183.271 22.3941Z" fill="currentColor"/><path d="M195.025 0H200V26.0523H195.025V0Z" fill="currentColor"/><path d="M32.1233 23.5941C31.5181 23.8112 30.8917 23.3437 30.799 23.479C30.7224 23.5907 31.0638 24.0294 31.4899 24.3426C31.7979 24.5689 32.5257 25.0059 33.846 24.9438C34.0652 24.9322 34.2761 24.8558 34.4519 24.7243C34.6277 24.5928 34.7605 24.4121 34.8334 24.205L35.4628 22.4426C33.352 20.5563 31.6138 18.2908 30.3384 15.7636C29.5172 14.1291 28.8987 12.4005 28.4965 10.6161C28.6951 10.2649 28.8673 9.94422 29.0141 9.66036C29.5968 10.2131 30.1793 10.7659 30.7616 11.3186C30.8265 11.3806 30.9033 11.4287 30.9874 11.4601C31.0715 11.4915 31.1611 11.5054 31.2508 11.5011C31.3404 11.4968 31.4283 11.4743 31.509 11.435C31.5897 11.3957 31.6615 11.3404 31.7202 11.2725C32.2914 11.5028 32.9242 11.413 33.3324 11.0422C33.9675 10.4647 33.9732 9.27229 33.0992 8.56351C33.0272 7.69985 32.9898 7.2542 32.9178 6.39053C33.3053 6.27134 33.6928 6.15216 34.0803 6.03298C34.1983 5.65819 34.1983 5.25621 34.0803 4.88142C33.9971 4.62487 33.8596 4.38923 33.6773 4.19049C33.3704 3.57384 32.6409 2.34571 31.2014 1.5995C30.9345 1.46435 30.6575 1.35001 30.3729 1.25749C29.3064 0.894755 28.1809 0.737289 27.0559 0.793415C27.3052 0.966148 27.5547 1.13888 27.8044 1.31161C27.0524 1.1527 26.2244 1.01163 25.3285 0.908573C24.3768 0.799176 23.4889 0.748507 22.68 0.73584C22.8141 0.869996 22.9485 1.00434 23.083 1.13888C22.1011 1.11391 21.1188 1.17169 20.1465 1.31162C18.9368 1.48608 15.8294 2.06415 11.2796 5.16931C6.83403 8.2025 4.11119 10.0611 4.31271 12.4241C4.44802 14.0063 5.96979 16.6963 7.99768 17.7212C8.29478 17.8715 8.73525 18.0529 9.03407 18.5273C9.51715 19.2942 9.16247 20.2777 8.63103 22.2699C8.47269 22.8641 8.26772 23.5872 8.00862 24.4129C7.95461 24.5856 7.94019 24.7682 7.96642 24.9472C7.99264 25.1263 8.05885 25.2971 8.16012 25.447C8.26139 25.597 8.39513 25.7222 8.55141 25.8134C8.70769 25.9046 8.8825 25.9594 9.06287 25.9738C12.8342 26.279 14.763 26.2151 14.8494 25.7821C14.9116 25.4723 14.0287 24.9733 12.2008 24.2851C12.127 23.8081 12.127 23.3226 12.2008 22.8456C12.4997 20.9438 13.9184 20.337 14.2736 18.8152C14.5805 17.5001 14.1303 16.2628 13.6979 15.4181C15.7485 15.2898 17.7314 14.6355 19.4556 13.5181C19.0359 15.5788 19.4211 16.865 19.8587 17.6636C20.7649 19.3173 22.7393 20.4135 22.68 21.8092C22.6696 22.047 22.5942 22.4495 22.6535 23.0967C22.7162 23.7818 22.8636 24.0121 22.7375 24.2851C22.6195 24.5396 22.2717 24.8125 21.2405 24.8608C21.039 25.0917 20.9622 25.2837 21.0102 25.4366C21.1599 25.9134 22.5226 26.0093 25.0982 25.7245C25.4051 25.0336 25.7122 24.3426 26.0195 23.6517C26.0871 22.5182 26.0486 21.3809 25.9043 20.2546C25.5819 17.7719 24.918 16.7954 25.4437 15.303C25.6596 14.6898 25.8749 14.5625 26.7104 13.4029C27.2493 12.655 27.7053 11.9508 28.0865 11.318C27.9 11.8045 27.6921 12.3084 27.4589 12.8271C27.0612 13.7125 26.6193 14.5772 26.1346 15.4181C26.2858 16.2144 26.5373 16.9882 26.8831 17.7212C28.459 21.0527 31.5504 22.5232 32.756 23.0184C32.6501 23.2009 32.452 23.4761 32.1233 23.5941ZM27.9201 4.59354C28.2425 4.34307 28.7216 4.49335 28.8413 4.53596C29.4983 4.77087 29.8639 5.54644 29.705 5.74509C29.5703 5.91436 29.0855 5.62245 28.9565 5.80266C28.7878 6.03816 29.4494 6.6289 29.302 6.83906C29.177 7.01755 28.5028 6.90412 28.0928 6.4936C27.5775 5.97713 27.4485 4.95973 27.9201 4.59354Z" fill="currentColor"/><path d="M7.94057 18.4122C6.43008 17.6254 5.17265 16.4279 4.31318 14.9575C4.0823 15.2512 3.78231 15.6594 3.39194 16.2242C2.64516 17.3049 2.5156 18.3874 2.47069 18.6425C2.36821 19.2229 1.90413 20.0387 0.360478 21.1137C0.019619 21.3509 -0.00110996 21.8973 4.10735e-05 22.442C0.00522487 24.239 2.06939 25.9007 2.87317 25.5518C3.03151 25.4833 3.14148 25.3359 3.21863 25.1488C4.15657 25.4487 5.11984 25.675 5.29142 25.3791C5.52691 24.9731 3.91705 24.1187 3.79441 22.9032C3.62685 21.241 5.79177 19.6265 7.94057 18.4122Z" fill="currentColor"/></g><defs><clipPath id="clip0_1136_1826"><rect width="200" height="27" fill="currentColor"/></clipPath></defs></svg>