<svg viewBox="0 0 294 47" fill="#fff" xmlns="http://www.w3.org/2000/svg"><path d="M11.4648 27.4608V10.2397H35.7429V19.0626H47.1275L47.1272 0.529785H0V45.539H11.4648V37.234H43.3073V27.4608H11.4648Z" fill="#fff"/><path d="M87.7155 35.9582H61.0726L56.3025 45.539H43.7119L66.666 0.529785H82.1171L105.136 45.539H92.4829L87.713 35.9582H87.7155ZM83.456 27.3415L74.4264 9.08069L65.3344 27.3415H83.456Z" fill="#fff"/><path d="M162.851 32.4229C162.851 40.0096 158.474 45.539 148.386 45.539H107.783V0.529785H146.866C156.954 0.529785 160.062 5.73778 160.062 12.3604C160.062 15.511 158.793 18.5983 156.573 21.1061C160.382 23.4848 162.853 27.2149 162.853 32.4229H162.851ZM119.202 18.2135H142.803C145.849 18.2135 148.64 18.2135 148.64 13.5193C148.64 8.82506 145.849 8.89088 142.74 8.89088H119.202V18.2135ZM151.433 31.8458C151.433 27.0882 148.64 27.0882 145.595 27.0882H119.202V36.6034H145.595C148.64 36.6034 151.433 36.6034 151.433 31.8458Z" fill="#fff"/><path d="M209.027 32.1648L217.253 45.539H203.734L196.529 33.5161H178.039V45.539H166.561V0.529785H201.632C211.769 0.529785 218.719 7.02343 218.719 17.0547C218.719 24.3857 215.02 29.786 209.027 32.1648ZM178.036 23.8063H198.442C201.884 23.8063 207.24 23.8063 207.24 17.0547C207.24 10.303 201.884 10.2397 198.442 10.2397H178.036V23.8063Z" fill="#fff"/><path d="M233.81 45.539H222.425V0.529785H233.81V45.539Z" fill="#fff"/><path d="M265.544 0C283.316 0 292.233 6.78122 293.382 19.7065H281.725C280.642 12.477 275.101 9.66174 265.544 9.66174C253.887 9.66174 248.983 13.8217 248.983 22.9698C248.983 32.1181 253.953 36.4063 265.544 36.4063C275.036 36.4063 280.642 33.5281 281.725 26.2333H293.382C292.236 39.2216 283.316 46.0682 265.544 46.0682C245.925 46.0682 237.516 37.8794 237.516 22.9723C237.516 8.0652 245.925 0 265.544 0Z" fill="#fff"/></svg>