<svg width="21" height="19" viewBox="0 0 21 19" fill="none" xmlns="http://www.w3.org/2000/svg">
<g clip-path="url(#clip0_2954_5641)">
<path fill-rule="evenodd" clip-rule="evenodd" d="M18.6881 0.435644C18.934 0.326607 19.2032 0.289 19.4675 0.326739C19.7319 0.364477 19.9819 0.476181 20.1914 0.650224C20.4009 0.824266 20.5623 1.05428 20.6587 1.31634C20.7552 1.57839 20.7833 1.8629 20.74 2.14025L18.4831 16.5623C18.2642 17.9534 16.8154 18.7512 15.6043 18.0583C14.5913 17.4785 13.0868 16.5853 11.7335 15.6534C11.0568 15.1869 8.98403 13.693 9.23878 12.63C9.4577 11.721 12.9405 8.30555 14.9307 6.27491C15.7118 5.47712 15.3556 5.0169 14.4331 5.75074C12.1414 7.57275 8.4646 10.3435 7.24861 11.1235C6.1759 11.8112 5.61667 11.9286 4.94797 11.8112C3.72799 11.5973 2.59658 11.2661 1.67314 10.8625C0.425305 10.3173 0.486006 8.50997 1.67215 7.9837L18.6881 0.435644Z" fill="white"/>
</g>
<defs>
<clipPath id="clip0_2954_5641">
<rect width="20" height="18" fill="white" transform="translate(0.759766 0.3125)"/>
</clipPath>
</defs>
</svg>
