<svg width="24" height="18" viewBox="0 0 24 18" fill="none" xmlns="http://www.w3.org/2000/svg">
<path d="M23.4564 2.96272C23.2054 3.7489 22.8381 4.49478 22.3663 5.17661L22.3853 5.14721C21.9372 5.87896 21.4021 6.7244 20.78 7.68352C20.2466 8.44075 19.9643 8.83276 19.9329 8.85955C19.7904 9.03447 19.6982 9.24359 19.6659 9.46521L19.6649 9.47207C19.6904 9.67175 19.785 9.85683 19.9329 9.99638L20.333 10.4335C22.4733 12.5889 23.6771 14.0746 23.9445 14.8906C23.9952 15.0247 24.0115 15.1689 23.992 15.3106C23.9725 15.4522 23.9177 15.587 23.8325 15.7031L23.8345 15.7001C23.7338 15.8019 23.6111 15.8802 23.4753 15.9292C23.3396 15.9783 23.1944 15.9968 23.0504 15.9834H23.0544H20.418C20.0809 15.9834 19.7709 15.8677 19.5279 15.6756L19.5309 15.6776C19.1839 15.3988 18.8653 15.0877 18.5797 14.7485L18.5707 14.7368C18.11 14.2265 17.7013 13.7969 17.3445 13.448C16.1564 12.3413 15.2796 11.7879 14.7142 11.7879C14.5317 11.7719 14.3492 11.8186 14.1981 11.9202L14.2011 11.9182C14.1362 11.998 14.0885 12.0899 14.061 12.1883C14.0335 12.2867 14.0267 12.3895 14.0411 12.4906V12.4866C14.0022 12.9439 13.9895 13.403 14.0031 13.8616V13.845V14.9808C14.0315 15.1165 14.0217 15.2572 13.9749 15.3878C13.928 15.5185 13.8458 15.6342 13.737 15.7227L13.736 15.7237C13.2295 15.9479 12.6719 16.0381 12.1188 15.9853L12.1318 15.9863C10.6178 15.9609 9.13949 15.5312 7.85615 14.7436L7.89116 14.7632C6.41133 13.889 5.14292 12.7103 4.17361 11.3086L4.14661 11.2675C3.20571 10.038 2.37864 8.72873 1.67525 7.35521L1.60524 7.20428C1.13653 6.31485 0.724673 5.39774 0.372055 4.45825L0.312046 4.27694C0.148557 3.78922 0.0444864 3.28427 0.00200029 2.7726L0 2.7481C0 2.25286 0.297377 2.00524 0.892131 2.00524H3.52252C3.78844 1.98483 4.05242 2.06358 4.26162 2.22574L4.25962 2.22378C4.45965 2.43841 4.60768 2.70204 4.68069 2.99604L4.68369 3.00781C5.11824 4.22727 5.64892 5.41177 6.27092 6.55061L6.20391 6.41634C6.65346 7.31113 7.19752 8.15728 7.82715 8.94089L7.80414 8.91051C8.33756 9.5521 8.75362 9.8729 9.05233 9.8729L9.08433 9.87388C9.15466 9.87398 9.22377 9.85592 9.28469 9.8215C9.34562 9.78709 9.39622 9.73755 9.43138 9.67787L9.43238 9.67591C9.52814 9.43028 9.56609 9.16664 9.5434 8.90463V8.91051V5.10898C9.5247 4.67797 9.41577 4.25532 9.22335 3.86729L9.23135 3.88591C9.11468 3.6393 8.96318 3.41002 8.78129 3.20479L8.78429 3.20871C8.61658 3.04464 8.50747 2.83186 8.47324 2.60207L8.47224 2.59619C8.47224 2.42959 8.55025 2.27964 8.67227 2.18164L8.67327 2.18066C8.79884 2.06798 8.96307 2.0057 9.13334 2.00622H13.2879C13.3922 1.99429 13.4979 2.00793 13.5955 2.0459C13.6931 2.08387 13.7795 2.145 13.847 2.22378L13.848 2.22476C13.9744 2.45348 14.0296 2.71341 14.0071 2.97252V2.96762V8.03731C13.9911 8.23726 14.0386 8.43716 14.1431 8.60964L14.1411 8.60572C14.1777 8.65936 14.2272 8.70334 14.2853 8.73376C14.3434 8.76419 14.4083 8.78012 14.4741 8.78017C14.6428 8.76943 14.8065 8.71461 14.9462 8.6214L14.9432 8.62336C15.2152 8.4401 15.4493 8.23135 15.6523 7.99517L15.6563 7.99027C16.2742 7.3052 16.8282 6.56723 17.3115 5.7852L17.3505 5.7166C17.6946 5.15799 18.0666 4.47001 18.4037 3.76341L18.4657 3.61934L18.9118 2.74516C18.9903 2.51913 19.1418 2.32429 19.3434 2.1901C19.5449 2.0559 19.7856 1.98964 20.0289 2.00132H20.0259H22.6573C23.3681 2.00132 23.6348 2.32179 23.4574 2.96272H23.4564Z" fill="white"/>
</svg>
